<svg width="20" height="20" viewBox="0 0 20 20" fill="none" xmlns="http://www.w3.org/2000/svg">
<path d="M14.6875 12.8125C14.8125 12.8125 14.9306 12.7638 15.0187 12.675L17.3625 10.3313C17.4063 10.2875 17.4406 10.2356 17.4644 10.1781C17.4662 10.1737 17.4681 10.1681 17.47 10.1631C17.4894 10.1125 17.5 10.0569 17.5 10C17.5 9.94437 17.49 9.89 17.47 9.83687C17.4687 9.8325 17.4669 9.82812 17.465 9.82375C17.44 9.76312 17.4056 9.71187 17.3612 9.66812L15.0187 7.325C14.93 7.23625 14.8125 7.1875 14.6875 7.1875C14.5625 7.1875 14.4444 7.23625 14.3562 7.325C14.2675 7.41312 14.2188 7.53125 14.2188 7.65625C14.2188 7.78125 14.2675 7.89938 14.3562 7.9875L15.9 9.53125H2.96875C2.71 9.53125 2.5 9.74125 2.5 10C2.5 10.2587 2.71 10.4687 2.96875 10.4687H15.8994L14.3556 12.0125C14.2669 12.1012 14.2181 12.2187 14.2181 12.3438C14.2181 12.4688 14.2669 12.5869 14.3556 12.675C14.4444 12.7638 14.5625 12.8125 14.6875 12.8125Z" fill="#3B414D"/>
</svg>
