<svg width="14" height="24" viewBox="0 0 14 24" fill="none" xmlns="http://www.w3.org/2000/svg">
<path d="M12.4695 24C12.2695 24 12.0805 23.922 11.9395 23.78L1.21952 13.06C0.936518 12.777 0.780518 12.401 0.780518 12.001C0.780518 11.601 0.935518 11.224 1.21852 10.941L11.9395 0.22C12.0805 0.078 12.2695 0 12.4695 0C12.6695 0 12.8585 0.078 12.9995 0.22C13.1415 0.361 13.2195 0.55 13.2195 0.75C13.2195 0.95 13.1415 1.139 12.9995 1.28L2.27952 12L12.9995 22.72C13.1415 22.862 13.2195 23.05 13.2195 23.25C13.2195 23.45 13.1415 23.639 12.9995 23.78C12.8575 23.921 12.6695 24 12.4695 24Z" fill="white"/>
</svg>
