<svg width="10" height="18" viewBox="0 0 10 18" fill="none" xmlns="http://www.w3.org/2000/svg">
<path d="M9.10211 18C8.95211 18 8.81036 17.9415 8.70461 17.835L0.664608 9.795C0.452358 9.58275 0.335358 9.30075 0.335358 9.00075C0.335358 8.70075 0.451608 8.418 0.663858 8.20575L8.70461 0.165C8.81036 0.0585 8.95211 0 9.10211 0C9.25211 0 9.39386 0.0585 9.49961 0.165C9.60611 0.27075 9.66461 0.4125 9.66461 0.5625C9.66461 0.7125 9.60611 0.85425 9.49961 0.96L1.45961 9L9.49961 17.04C9.60611 17.1465 9.66461 17.2875 9.66461 17.4375C9.66461 17.5875 9.60611 17.7292 9.49961 17.835C9.39311 17.9408 9.25211 18 9.10211 18Z" fill="#4E5666"/>
</svg>
