<svg width="10" height="20" viewBox="0 0 10 20" fill="none" xmlns="http://www.w3.org/2000/svg">
<path d="M0.231742 10C0.231742 9.69338 0.351342 9.40511 0.567542 9.18815L8.78621 0.968715C8.89508 0.859849 9.03921 0.800049 9.19331 0.800049C9.34664 0.800049 9.49154 0.859849 9.59964 0.968715C9.70851 1.07758 9.76831 1.22172 9.76831 1.37505C9.76831 1.52838 9.70851 1.67328 9.59964 1.78138L1.38174 10L9.59964 18.2187C9.70851 18.3276 9.76831 18.4717 9.76831 18.625C9.76831 18.7784 9.70851 18.9233 9.59964 19.0314C9.49078 19.1402 9.34664 19.2 9.19331 19.2C9.03998 19.2 8.89508 19.1402 8.78698 19.0314L0.56831 10.8127C0.351343 10.5965 0.231742 10.3075 0.231742 10Z" fill="#3B414D"/>
</svg>

