<svg width="40" height="40" viewBox="0 0 40 40" fill="none" xmlns="http://www.w3.org/2000/svg">
<path d="M34.0614 35C33.8115 35 33.5753 34.9025 33.3991 34.7251L25.2574 26.5821C24.3064 27.3957 23.2354 28.0592 22.0669 28.5554C20.531 29.2077 18.9177 29.5389 17.2719 29.5389C15.701 29.5389 14.1576 29.2377 12.6818 28.6416C9.64377 27.4156 7.26561 25.0812 5.98468 22.0657C4.70375 19.0515 4.67251 15.7173 5.89846 12.6806C7.1244 9.64384 9.45882 7.26443 12.4731 5.9835C14.0089 5.32992 15.621 5 17.2681 5C18.839 5 20.3823 5.30242 21.8582 5.89728C24.8962 7.12322 27.2744 9.45764 28.5553 12.4731C29.8362 15.4886 29.8675 18.8215 28.6415 21.8583C28.1391 23.103 27.4468 24.2439 26.5808 25.2549L34.725 33.4004C35.0899 33.7653 35.0899 34.3602 34.725 34.7263C34.5475 34.9025 34.3114 35 34.0614 35ZM17.2681 6.87453C15.8747 6.87453 14.5076 7.15446 13.2066 7.70807C10.6523 8.79405 8.67401 10.8085 7.63552 13.3817C6.59703 15.9548 6.62327 18.7778 7.708 21.3322C8.79398 23.8865 10.8085 25.8648 13.3816 26.9033C14.6325 27.4081 15.9409 27.6631 17.2706 27.6631C18.664 27.6631 20.0312 27.3832 21.3321 26.8295C22.5493 26.3122 23.6403 25.5824 24.5738 24.6601C24.5863 24.6426 24.6 24.6276 24.6138 24.6138C24.6338 24.5939 24.6525 24.5776 24.67 24.5651C25.6235 23.6016 26.3808 22.4494 26.902 21.156C27.9404 18.5829 27.9142 15.7598 26.8282 13.2054C25.7435 10.6511 23.7277 8.67283 21.1546 7.63434C19.9062 7.13072 18.5978 6.87453 17.2681 6.87453Z" fill="#3B414D"/>
</svg>
