<svg width="10" height="18" viewBox="0 0 10 18" fill="none" xmlns="http://www.w3.org/2000/svg">
<path d="M0.897949 18C0.747949 18 0.606199 17.9415 0.500449 17.835C0.281449 17.616 0.281449 17.259 0.500449 17.0392L8.54045 9L0.500449 0.96C0.393949 0.85425 0.335449 0.7125 0.335449 0.5625C0.335449 0.4125 0.393949 0.27075 0.500449 0.165C0.606199 0.0585 0.747949 0 0.897949 0C1.04795 0 1.1897 0.0585 1.29545 0.165L9.33545 8.205C9.77345 8.643 9.7742 9.35625 9.3362 9.79425L1.29545 17.835C1.1897 17.9415 1.04795 18 0.897949 18Z" fill="#3B414D"/>
</svg>
