<svg width="14" height="24" viewBox="0 0 14 24" fill="none" xmlns="http://www.w3.org/2000/svg">
<path d="M1.53076 24C1.33076 24 1.14176 23.922 1.00076 23.78C0.708762 23.488 0.708762 23.012 1.00076 22.719L11.7208 12L1.00076 1.28C0.858762 1.139 0.780762 0.95 0.780762 0.75C0.780762 0.55 0.858762 0.361 1.00076 0.22C1.14176 0.078 1.33076 0 1.53076 0C1.73076 0 1.91976 0.078 2.06076 0.22L12.7808 10.94C13.3648 11.524 13.3658 12.475 12.7818 13.059L2.06076 23.78C1.91976 23.922 1.73076 24 1.53076 24Z" fill="white"/>
</svg>
