<svg width="10" height="18" viewBox="0 0 10 18" fill="none" xmlns="http://www.w3.org/2000/svg">
<path d="M0.898071 18C0.748071 18 0.606321 17.9415 0.500571 17.835C0.281571 17.616 0.281571 17.259 0.500571 17.0392L8.54057 9L0.500571 0.96C0.394071 0.85425 0.335571 0.7125 0.335571 0.5625C0.335571 0.4125 0.394071 0.27075 0.500571 0.165C0.606321 0.0585 0.748071 0 0.898071 0C1.04807 0 1.18982 0.0585 1.29557 0.165L9.33557 8.205C9.77357 8.643 9.77432 9.35625 9.33632 9.79425L1.29557 17.835C1.18982 17.9415 1.04807 18 0.898071 18Z" fill="#4E5666"/>
</svg>
