<svg width="10" height="20" viewBox="0 0 10 20" fill="none" xmlns="http://www.w3.org/2000/svg">
<path d="M9.7685 9.99995C9.7685 10.3066 9.6489 10.5949 9.4327 10.8119L1.21403 19.0313C1.10517 19.1402 0.961034 19.2 0.806934 19.2C0.6536 19.2 0.5087 19.1402 0.4006 19.0313C0.291734 18.9224 0.231934 18.7783 0.231934 18.625C0.231934 18.4716 0.291734 18.3267 0.4006 18.2186L8.6185 9.99995L0.4006 1.78129C0.291733 1.67242 0.231933 1.52829 0.231933 1.37495C0.231933 1.22162 0.291733 1.07672 0.4006 0.968619C0.509466 0.859752 0.653599 0.799953 0.806933 0.799953C0.960266 0.799953 1.10517 0.859752 1.21327 0.968619L9.43193 9.18728C9.6489 9.40348 9.7685 9.69252 9.7685 9.99995Z" fill="#3B414D"/>
</svg>

